<svg width="1440" height="759" viewBox="0 0 1440 759" fill="none" xmlns="http://www.w3.org/2000/svg">
<mask id="mask0" mask-type="alpha" maskUnits="userSpaceOnUse" x="0" y="0" width="1440" height="759">
<rect width="1440" height="759" fill="url(#paint0_linear)"/>
</mask>
<g mask="url(#mask0)">
<g style="mix-blend-mode:screen" opacity="0.2">
<path d="M1339 183L1494.88 273V453L1339 543L1183.12 453V273L1339 183Z" fill="white" fill-opacity="0.2"/>
</g>
<g style="mix-blend-mode:screen" opacity="0.2">
<path d="M521.5 635L613.732 688.25V794.75L521.5 848L429.268 794.75V688.25L521.5 635Z" fill="white" fill-opacity="0.2"/>
</g>
<g style="mix-blend-mode:screen" opacity="0.2">
<path d="M129.5 28L352.502 156.75V414.25L129.5 543L-93.5015 414.25V156.75L129.5 28Z" fill="white" fill-opacity="0.2"/>
</g>
<g style="mix-blend-mode:screen" opacity="0.5">
<path d="M-85.8535 415.539L66.5 327.577L218.853 415.539V591.461L66.5 679.423L-85.8535 591.461V415.539Z" stroke="white"/>
</g>
<g style="mix-blend-mode:screen" opacity="0.5">
<path d="M1226.92 118.289L1339 53.5774L1451.08 118.289V247.711L1339 312.423L1226.92 247.711V118.289Z" stroke="white"/>
</g>
<g style="mix-blend-mode:screen" opacity="0.5">
<path d="M737.917 111.289L850 46.5774L962.083 111.289V240.711L850 305.423L737.917 240.711V111.289Z" stroke="white"/>
</g>
<g style="mix-blend-mode:screen" opacity="0.5">
<path d="M429.538 6.28868L481 -23.4226L532.462 6.28868V65.7113L481 95.4226L429.538 65.7113V6.28868Z" stroke="white"/>
</g>
</g>
<defs>
<linearGradient id="paint0_linear" x1="90" y1="-5.97401e-05" x2="1217" y2="628" gradientUnits="userSpaceOnUse">
<stop stop-color="#021177"/>
<stop offset="1" stop-color="#2C6399"/>
</linearGradient>
</defs>
</svg>
